# xmcd
#
# Track frame offsets:
#	150
#	15900
#	34950
#	56720
#	71085
#	85870
#	100842
#	118200
#	137597
#	154070
#	171757
#	189905
#
# Disc length: 2730 seconds
#
# Revision: 1
# Processed by: cddbd v1.5.2PL0 Copyright (c) Steve Scherf et al.
# Submitted via: EasyCDDAExtractor 16.0.6.1
#
DISCID=9a0aa80c
DTITLE=Celeste carballo - Celeste acústica
DYEAR=1900
DGENRE=
TTITLE0=Me voy al oeste
TTITLE1=Sabemos que vuelve pronto
TTITLE2=\nahora estoy en libertad
TTITLE3=\nblues del veraneo
TTITLE4=\nlos poetas de latinoamérica
TTITLE5=\npaloma
TTITLE6=Me vuelvo, cada dia mas loca
TTITLE7=Buscabamos vida
TTITLE8=Un tango desnuda
TTITLE9=\nuna canción diferente
TTITLE10=\ndesconfío
TTITLE11=Algo nuevo
EXTD=
EXTT0=
EXTT1=
EXTT2=
EXTT3=
EXTT4=
EXTT5=
EXTT6=
EXTT7=
EXTT8=
EXTT9=
EXTT10=
EXTT11=
PLAYORDER=
